<mxfile host="app.diagrams.net" modified="2023-03-27T11:34:18.436Z" agent="Mozilla/5.0 (Windows NT 10.0; Win64; x64) AppleWebKit/537.36 (KHTML, like Gecko) Chrome/111.0.0.0 Safari/537.36 Edg/111.0.1661.44" version="21.1.1" etag="ZKWxssK9fA-gffXiY4PP" type="github">
  <diagram name="페이지-1" id="W-hcx0_k8sRF1dQl1FhT">
    <mxGraphModel>
      <root>
        <mxCell id="0" />
        <mxCell id="1" parent="0" />
      </root>
    </mxGraphModel>
  </diagram>
</mxfile>
